<!DOCTYPE svg PUBLIC "-//W3C//DTD SVG 1.1//EN"
 "http://www.w3.org/Graphics/SVG/1.1/DTD/svg11.dtd">
<svg version="1.1"
 width="600px" height="493px"
 viewBox="0 0 600 493"
 xmlns="http://www.w3.org/2000/svg" shape-rendering="crispEdges"
 stroke-width="1" text-rendering="geometricPrecision">
<polygon fill="white" points="95,7 103,7 103,16 95,16"/>
<text x="100" y="16" textLength="7" font-family="Helvetica" font-size="12" fill="black" text-anchor="middle">

a
</text>
<polygon fill="white" points="295,7 303,7 303,16 295,16"/>
<text x="300" y="16" textLength="7" font-family="Helvetica" font-size="12" fill="black" text-anchor="middle">

b
</text>
<polygon fill="white" points="495,7 503,7 503,16 495,16"/>
<text x="500" y="16" textLength="6" font-family="Helvetica" font-size="12" fill="black" text-anchor="middle">

c
</text>
<line x1="100" y1="22" x2="100" y2="50" stroke="black"/>
<line x1="300" y1="22" x2="300" y2="50" stroke="black"/>
<line x1="500" y1="22" x2="500" y2="50" stroke="black"/>
<path d="M 100 39 A98,6 0 0,1 100,27" stroke="black" fill="none"/><line x1="100" y1="39" x2="90" y2="45" stroke="black"/>
<polygon fill="white" points="100,23 191,23 191,32 100,32"/>
<text x="101" y="32" textLength="89" font-family="Helvetica" font-size="12" fill="black">
odp_init_global()
</text>
<line x1="100" y1="50" x2="100" y2="78" stroke="black"/>
<line x1="300" y1="50" x2="300" y2="78" stroke="black"/>
<line x1="500" y1="50" x2="500" y2="78" stroke="black"/>
<line x1="100" y1="61" x2="300" y2="61" stroke="black"/>
<line x1="300" y1="61" x2="290" y2="67" stroke="black"/>
<polygon fill="white" points="149,51 250,51 250,60 149,60"/>
<text x="150" y="60" textLength="99" font-family="Helvetica" font-size="12" fill="black">
odp_thread_start()
</text>
<line x1="100" y1="78" x2="100" y2="106" stroke="black"/>
<line x1="300" y1="78" x2="300" y2="106" stroke="black"/>
<line x1="500" y1="78" x2="500" y2="106" stroke="black"/>
<line x1="100" y1="89" x2="500" y2="89" stroke="black"/>
<line x1="500" y1="89" x2="490" y2="95" stroke="black"/>
<polygon fill="white" points="249,79 350,79 350,88 249,88"/>
<text x="250" y="88" textLength="99" font-family="Helvetica" font-size="12" fill="black">
odp_thread_start()
</text>
<line x1="100" y1="106" x2="100" y2="134" stroke="black"/>
<line x1="300" y1="106" x2="300" y2="134" stroke="black"/>
<line x1="500" y1="106" x2="500" y2="134" stroke="black"/>
<path d="M 100 123 A98,6 0 0,1 100,111" stroke="black" fill="none"/><line x1="100" y1="123" x2="90" y2="129" stroke="black"/>
<polygon fill="white" points="100,107 183,107 183,116 100,116"/>
<text x="101" y="116" textLength="81" font-family="Helvetica" font-size="12" fill="black">
odp_init_local()
</text>
<path d="M 300 111 A100,6 0 0,1 300,123" stroke="black" fill="none"/><line x1="300" y1="123" x2="310" y2="129" stroke="black"/>
<polygon fill="white" points="215,107 298,107 298,116 215,116"/>
<text x="216" y="116" textLength="81" font-family="Helvetica" font-size="12" fill="black">
odp_init_local()
</text>
<path d="M 500 111 A100,6 0 0,1 500,123" stroke="black" fill="none"/><line x1="500" y1="123" x2="510" y2="129" stroke="black"/>
<polygon fill="white" points="415,107 498,107 498,116 415,116"/>
<text x="416" y="116" textLength="81" font-family="Helvetica" font-size="12" fill="black">
odp_init_local()
</text>
<line x1="100" y1="134" x2="100" y2="151" stroke="black"/>
<line x1="300" y1="134" x2="300" y2="151" stroke="black"/>
<line x1="500" y1="134" x2="500" y2="151" stroke="black"/>
<line x1="50" y1="139" x2="550" y2="139" stroke="black" stroke-dasharray="2,2"/>
<line x1="100" y1="151" x2="100" y2="179" stroke="black"/>
<line x1="300" y1="151" x2="300" y2="179" stroke="black"/>
<line x1="500" y1="151" x2="500" y2="179" stroke="black"/>
<path d="M 300 156 A100,6 0 0,1 300,168" stroke="black" fill="none"/><line x1="300" y1="168" x2="310" y2="174" stroke="black"/>
<polygon fill="white" points="162,152 298,152 298,161 162,161"/>
<text x="163" y="161" textLength="134" font-family="Helvetica" font-size="12" fill="#7F7FFF">
pool = odp_pool_create()
</text>
<line x1="100" y1="179" x2="100" y2="207" stroke="black"/>
<line x1="300" y1="179" x2="300" y2="207" stroke="black"/>
<line x1="500" y1="179" x2="500" y2="207" stroke="black"/>
<path d="M 100 196 A98,6 0 0,1 100,184" stroke="black" fill="none"/><line x1="100" y1="196" x2="90" y2="202" stroke="black"/>
<polygon fill="white" points="100,180 145,180 145,189 100,189"/>
<text x="101" y="189" textLength="43" font-family="Helvetica" font-size="12" fill="black">
barrier()
</text>
<path d="M 300 184 A100,6 0 0,1 300,196" stroke="black" fill="none"/><line x1="300" y1="196" x2="310" y2="202" stroke="black"/>
<polygon fill="white" points="253,180 298,180 298,189 253,189"/>
<text x="254" y="189" textLength="43" font-family="Helvetica" font-size="12" fill="black">
barrier()
</text>
<path d="M 500 184 A100,6 0 0,1 500,196" stroke="black" fill="none"/><line x1="500" y1="196" x2="510" y2="202" stroke="black"/>
<polygon fill="white" points="453,180 498,180 498,189 453,189"/>
<text x="454" y="189" textLength="43" font-family="Helvetica" font-size="12" fill="black">
barrier()
</text>
<line x1="100" y1="207" x2="100" y2="235" stroke="black"/>
<line x1="300" y1="207" x2="300" y2="235" stroke="black"/>
<line x1="500" y1="207" x2="500" y2="235" stroke="black"/>
<path d="M 100 224 A98,6 0 0,1 100,212" stroke="black" fill="none"/><line x1="100" y1="224" x2="90" y2="230" stroke="black"/>
<polygon fill="white" points="100,208 191,208 191,217 100,217"/>
<text x="101" y="217" textLength="89" font-family="Helvetica" font-size="12" fill="#FFB000">
 buf = alloc(pool)
</text>
<path d="M 300 212 A100,6 0 0,1 300,224" stroke="black" fill="none"/><line x1="300" y1="224" x2="310" y2="230" stroke="black"/>
<polygon fill="white" points="207,208 298,208 298,217 207,217"/>
<text x="208" y="217" textLength="89" font-family="Helvetica" font-size="12" fill="#FFB000">
 buf = alloc(pool)
</text>
<path d="M 500 212 A100,6 0 0,1 500,224" stroke="black" fill="none"/><line x1="500" y1="224" x2="510" y2="230" stroke="black"/>
<polygon fill="white" points="407,208 498,208 498,217 407,217"/>
<text x="408" y="217" textLength="89" font-family="Helvetica" font-size="12" fill="#FFB000">
 buf = alloc(pool)
</text>
<line x1="100" y1="235" x2="100" y2="263" stroke="black"/>
<line x1="300" y1="235" x2="300" y2="263" stroke="black"/>
<line x1="500" y1="235" x2="500" y2="263" stroke="black"/>
<path d="M 100 252 A98,6 0 0,1 100,240" stroke="black" fill="none"/><line x1="100" y1="252" x2="90" y2="258" stroke="black"/>
<polygon fill="white" points="100,236 151,236 151,245 100,245"/>
<text x="101" y="245" textLength="49" font-family="Helvetica" font-size="12" fill="#FFB000">
 free(buf)
</text>
<path d="M 300 240 A100,6 0 0,1 300,252" stroke="black" fill="none"/><line x1="300" y1="252" x2="310" y2="258" stroke="black"/>
<polygon fill="white" points="247,236 298,236 298,245 247,245"/>
<text x="248" y="245" textLength="49" font-family="Helvetica" font-size="12" fill="#FFB000">
 free(buf)
</text>
<path d="M 500 240 A100,6 0 0,1 500,252" stroke="black" fill="none"/><line x1="500" y1="252" x2="510" y2="258" stroke="black"/>
<polygon fill="white" points="447,236 498,236 498,245 447,245"/>
<text x="448" y="245" textLength="49" font-family="Helvetica" font-size="12" fill="#FFB000">
 free(buf)
</text>
<line x1="100" y1="263" x2="100" y2="291" stroke="black"/>
<line x1="300" y1="263" x2="300" y2="291" stroke="black"/>
<line x1="500" y1="263" x2="500" y2="291" stroke="black"/>
<path d="M 100 280 A98,6 0 0,1 100,268" stroke="black" fill="none"/><line x1="100" y1="280" x2="90" y2="286" stroke="black"/>
<polygon fill="white" points="100,264 145,264 145,273 100,273"/>
<text x="101" y="273" textLength="43" font-family="Helvetica" font-size="12" fill="black">
barrier()
</text>
<path d="M 300 268 A100,6 0 0,1 300,280" stroke="black" fill="none"/><line x1="300" y1="280" x2="310" y2="286" stroke="black"/>
<polygon fill="white" points="253,264 298,264 298,273 253,273"/>
<text x="254" y="273" textLength="43" font-family="Helvetica" font-size="12" fill="black">
barrier()
</text>
<path d="M 500 268 A100,6 0 0,1 500,280" stroke="black" fill="none"/><line x1="500" y1="280" x2="510" y2="286" stroke="black"/>
<polygon fill="white" points="453,264 498,264 498,273 453,273"/>
<text x="454" y="273" textLength="43" font-family="Helvetica" font-size="12" fill="black">
barrier()
</text>
<line x1="100" y1="291" x2="100" y2="319" stroke="black"/>
<line x1="300" y1="291" x2="300" y2="319" stroke="black"/>
<line x1="500" y1="291" x2="500" y2="319" stroke="black"/>
<path d="M 100 308 A98,6 0 0,1 100,296" stroke="black" fill="none"/><line x1="100" y1="308" x2="90" y2="314" stroke="black"/>
<polygon fill="white" points="100,292 264,292 264,301 100,301"/>
<text x="101" y="301" textLength="162" font-family="Helvetica" font-size="12" fill="#7F7FFF">
pool = odp_pool_destroy(pool)
</text>
<line x1="100" y1="319" x2="100" y2="336" stroke="black"/>
<line x1="300" y1="319" x2="300" y2="336" stroke="black"/>
<line x1="500" y1="319" x2="500" y2="336" stroke="black"/>
<line x1="50" y1="324" x2="550" y2="324" stroke="black" stroke-dasharray="2,2"/>
<line x1="100" y1="336" x2="100" y2="364" stroke="black"/>
<line x1="300" y1="336" x2="300" y2="364" stroke="black"/>
<line x1="500" y1="336" x2="500" y2="364" stroke="black"/>
<path d="M 100 353 A98,6 0 0,1 100,341" stroke="black" fill="none"/><line x1="100" y1="353" x2="90" y2="359" stroke="black"/>
<polygon fill="white" points="100,337 145,337 145,346 100,346"/>
<text x="101" y="346" textLength="43" font-family="Helvetica" font-size="12" fill="black">
barrier()
</text>
<path d="M 300 341 A100,6 0 0,1 300,353" stroke="black" fill="none"/><line x1="300" y1="353" x2="310" y2="359" stroke="black"/>
<polygon fill="white" points="253,337 298,337 298,346 253,346"/>
<text x="254" y="346" textLength="43" font-family="Helvetica" font-size="12" fill="black">
barrier()
</text>
<path d="M 500 341 A100,6 0 0,1 500,353" stroke="black" fill="none"/><line x1="500" y1="353" x2="510" y2="359" stroke="black"/>
<polygon fill="white" points="453,337 498,337 498,346 453,346"/>
<text x="454" y="346" textLength="43" font-family="Helvetica" font-size="12" fill="black">
barrier()
</text>
<line x1="100" y1="364" x2="100" y2="381" stroke="black"/>
<line x1="300" y1="364" x2="300" y2="381" stroke="black"/>
<line x1="500" y1="364" x2="500" y2="381" stroke="black"/>
<line x1="50" y1="369" x2="550" y2="369" stroke="black" stroke-dasharray="2,2"/>
<polygon fill="white" points="277,365 321,365 321,374 277,374"/>
<text x="278" y="374" textLength="42" font-family="Helvetica" font-size="12" fill="black">
do work
</text>
<polygon fill="white" points="319,362 324,362 324,367 319,367"/>
<text x="320" y="367" textLength="3" font-family="Helvetica" font-size="8" fill="black">
*
</text>
<line x1="100" y1="381" x2="100" y2="409" stroke="black"/>
<line x1="300" y1="381" x2="300" y2="409" stroke="black"/>
<line x1="500" y1="381" x2="500" y2="409" stroke="black"/>
<path d="M 100 398 A98,6 0 0,1 100,386" stroke="black" fill="none"/><line x1="100" y1="398" x2="90" y2="404" stroke="black"/>
<polygon fill="white" points="100,382 192,382 192,391 100,391"/>
<text x="101" y="391" textLength="90" font-family="Helvetica" font-size="12" fill="black">
odp_term_local()
</text>
<path d="M 300 386 A100,6 0 0,1 300,398" stroke="black" fill="none"/><line x1="300" y1="398" x2="310" y2="404" stroke="black"/>
<polygon fill="white" points="206,382 298,382 298,391 206,391"/>
<text x="207" y="391" textLength="90" font-family="Helvetica" font-size="12" fill="black">
odp_term_local()
</text>
<path d="M 500 386 A100,6 0 0,1 500,398" stroke="black" fill="none"/><line x1="500" y1="398" x2="510" y2="404" stroke="black"/>
<polygon fill="white" points="406,382 498,382 498,391 406,391"/>
<text x="407" y="391" textLength="90" font-family="Helvetica" font-size="12" fill="black">
odp_term_local()
</text>
<line x1="100" y1="409" x2="100" y2="437" stroke="black"/>
<line x1="300" y1="409" x2="300" y2="437" stroke="black"/>
<line x1="500" y1="409" x2="500" y2="437" stroke="black"/>
<line x1="300" y1="420" x2="100" y2="420" stroke="black"/>
<line x1="100" y1="420" x2="110" y2="426" stroke="black"/>
<polygon fill="white" points="149,410 250,410 250,419 149,419"/>
<text x="150" y="419" textLength="99" font-family="Helvetica" font-size="12" fill="black">
odp_thread_term()
</text>
<line x1="100" y1="437" x2="100" y2="465" stroke="black"/>
<line x1="300" y1="437" x2="300" y2="465" stroke="black"/>
<line x1="500" y1="437" x2="500" y2="465" stroke="black"/>
<line x1="500" y1="448" x2="100" y2="448" stroke="black"/>
<line x1="100" y1="448" x2="110" y2="454" stroke="black"/>
<polygon fill="white" points="249,438 350,438 350,447 249,447"/>
<text x="250" y="447" textLength="99" font-family="Helvetica" font-size="12" fill="black">
odp_thread_term()
</text>
<line x1="100" y1="465" x2="100" y2="493" stroke="black"/>
<line x1="300" y1="465" x2="300" y2="493" stroke="black"/>
<line x1="500" y1="465" x2="500" y2="493" stroke="black"/>
<path d="M 100 482 A98,6 0 0,1 100,470" stroke="black" fill="none"/><line x1="100" y1="482" x2="90" y2="488" stroke="black"/>
<polygon fill="white" points="100,466 199,466 199,475 100,475"/>
<text x="101" y="475" textLength="97" font-family="Helvetica" font-size="12" fill="black">
odp_term_global()
</text>
<line x1="100" y1="487" x2="100" y2="493" stroke="black"/>
<line x1="300" y1="487" x2="300" y2="493" stroke="black"/>
<line x1="500" y1="487" x2="500" y2="493" stroke="black"/>
</svg>
